<?xml version="1.0" standalone="no"?>
<!DOCTYPE svg PUBLIC "-//W3C//DTD SVG 20010904//EN"
 "http://www.w3.org/TR/2001/REC-SVG-20010904/DTD/svg10.dtd">
<svg version="1.0" xmlns="http://www.w3.org/2000/svg"
 width="260.000000pt" height="260.000000pt" viewBox="0 0 260.000000 260.000000"
 preserveAspectRatio="xMidYMid meet">
<metadata>
Created by potrace 1.11, written by Peter Selinger 2001-2013
</metadata>
<g transform="translate(0.000000,260.000000) scale(0.100000,-0.100000)"
fill="#000000" stroke="none">
<path d="M0 1300 l0 -1300 1300 0 1300 0 0 1300 0 1300 -1300 0 -1300 0 0
-1300z m399 361 c22 -23 98 -160 196 -349 88 -172 165 -312 170 -312 6 1 22
26 37 58 15 31 62 125 105 207 44 83 105 201 137 263 82 160 126 197 184 156
l22 -15 0 -664 c0 -647 -1 -665 -19 -675 -26 -14 -74 -13 -89 2 -9 9 -12 143
-12 541 0 390 -3 528 -11 525 -7 -2 -76 -127 -155 -277 -178 -339 -167 -323
-206 -319 -30 3 -37 14 -187 305 -86 167 -159 303 -163 303 -5 0 -8 -241 -8
-535 0 -518 -1 -535 -19 -545 -26 -14 -74 -13 -89 2 -9 9 -12 174 -12 680 0
625 1 668 18 677 34 20 64 12 101 -28z m1656 15 c112 -34 187 -110 223 -226
15 -48 17 -105 17 -450 0 -357 -2 -400 -18 -450 -55 -165 -172 -240 -370 -240
-143 0 -225 28 -298 101 -52 52 -76 109 -89 211 -13 107 -13 694 0 778 19 120
82 210 177 255 94 45 249 54 358 21z"/>
<path d="M1795 1569 c-43 -12 -102 -64 -125 -109 -35 -68 -42 -163 -38 -508 3
-321 4 -328 28 -387 44 -105 130 -151 271 -143 121 7 187 54 223 161 23 70 24
757 0 836 -19 65 -84 135 -140 150 -46 13 -176 13 -219 0z"/>
</g>
</svg>
